<svg width="133" height="132" viewBox="0 0 133 132" fill="none" xmlns="http://www.w3.org/2000/svg">
<path fill-rule="evenodd" clip-rule="evenodd" d="M0.810547 0.122559H132.611V131.923H0.810547V0.122559Z" fill="white"/>
<path fill-rule="evenodd" clip-rule="evenodd" d="M109.269 76.7523C109.426 75.462 109.74 74.141 109.867 72.8192C113.045 73.291 113.517 73.7314 116.412 73.3218C117.858 73.1338 118.489 71.5604 117.953 70.2066C116.758 67.3122 110.967 64.0082 111.283 59.8858C111.849 52.7746 123.68 53.3722 126.796 54.5996L125.947 58.4068C123.933 57.935 121.761 56.9907 119.685 58.2181C118.961 58.6591 118.898 59.8858 119.717 60.9873C122.17 64.1655 127.268 68.0048 125.947 72.4411C124.593 77.0039 117.355 78.9868 109.269 76.7523V76.7523ZM11.88 54.0656H28.8409L27.9909 57.9672H18.4251L14.9324 73.2596H24.9707C24.6877 74.582 24.4039 75.903 24.0894 77.1933H6.62531L11.88 54.0656ZM62.1321 54.0341H73.4915C75.473 54.0341 77.5195 54.6946 79.1551 55.7962C80.2567 56.5203 81.7979 59.1316 81.6727 61.7429C81.5469 64.3228 78.2115 67.533 75.285 67.879L78.7462 77.1933H71.2891C70.2819 73.7006 69.2754 70.2072 68.236 66.7153C71.2262 66.4951 73.7116 65.3621 74.3728 62.7816C75.5052 58.2188 71.5092 58.1559 68.6142 58.2188L64.3037 77.1933H56.8773L62.1321 54.0341ZM101.15 54.0341L107.57 77.1933H94.0393L93.158 73.2596L99.8924 73.2917L97.0294 61.2711L87.5887 77.1933H80.9178L94.8886 54.0341H101.15V54.0341ZM33.5924 54.4745H41.1439L38.0286 69.0435C37.5568 71.2144 38.3432 73.2281 40.7035 73.2596C44.6051 73.3225 45.3914 70.7741 45.8954 69.358L49.4509 54.4745H55.9959L52.251 70.3337C51.0865 75.211 45.9261 78.1061 39.2553 78.2005C34.4724 78.2319 28.9974 74.9909 30.1612 69.7676L33.5924 54.4745Z" fill="#AB2A2F"/>
<path fill-rule="evenodd" clip-rule="evenodd" d="M17.3242 64.229H26.103L25.0958 68.5716H18.5194C18.4886 67.1548 17.8274 65.3299 17.3242 64.229Z" fill="#F2CA30"/>
</svg>
