<svg width="14" height="13" viewBox="0 0 14 13" fill="none" xmlns="http://www.w3.org/2000/svg">
<path d="M12.8333 5.66657H2.94998L5.97498 2.03324C6.11643 1.86306 6.18448 1.64366 6.16416 1.4233C6.14385 1.20295 6.03683 0.999686 5.86665 0.858238C5.69647 0.716789 5.47707 0.648737 5.25671 0.669054C5.03636 0.68937 4.8331 0.79639 4.69165 0.966571L0.52498 5.96657C0.496947 6.00634 0.471879 6.04812 0.44998 6.09157C0.44998 6.13324 0.44998 6.15824 0.391646 6.1999C0.353874 6.29545 0.334097 6.39716 0.333313 6.4999C0.334097 6.60264 0.353874 6.70435 0.391646 6.7999C0.391646 6.84157 0.391646 6.86657 0.44998 6.90824C0.471879 6.95169 0.496947 6.99347 0.52498 7.03324L4.69165 12.0332C4.77 12.1273 4.86811 12.203 4.97902 12.2548C5.08992 12.3067 5.21089 12.3334 5.33331 12.3332C5.52802 12.3336 5.71672 12.2658 5.86665 12.1416C5.95103 12.0716 6.02078 11.9857 6.07191 11.8887C6.12303 11.7918 6.15453 11.6857 6.16459 11.5765C6.17466 11.4674 6.16309 11.3573 6.13055 11.2527C6.09801 11.148 6.04515 11.0508 5.97498 10.9666L2.94998 7.33324H12.8333C13.0543 7.33324 13.2663 7.24544 13.4226 7.08916C13.5788 6.93288 13.6666 6.72092 13.6666 6.4999C13.6666 6.27889 13.5788 6.06693 13.4226 5.91065C13.2663 5.75437 13.0543 5.66657 12.8333 5.66657Z" fill="#242829" fill-opacity="0.5"/>
</svg>
