<svg width="18" height="17" viewBox="0 0 18 17" fill="none" xmlns="http://www.w3.org/2000/svg">
<path fill-rule="evenodd" clip-rule="evenodd" d="M6.85758 6.12049H9.95258V7.66216C10.3984 6.77549 11.5417 5.97882 13.2592 5.97882C16.5517 5.97882 17.3334 7.74382 17.3334 10.9822V16.9797H14.0001V11.7197C14.0001 9.87549 13.5542 8.83549 12.4192 8.83549C10.8451 8.83549 10.1909 9.95632 10.1909 11.7188V16.9797H6.85758V6.12049ZM1.14175 16.838H4.47508V5.97882H1.14175V16.838ZM4.95258 2.43799C4.95271 2.71738 4.89729 2.99402 4.78957 3.25181C4.68185 3.5096 4.52396 3.74342 4.32508 3.93966C3.92208 4.34018 3.37659 4.56437 2.80841 4.56299C2.24124 4.56261 1.69701 4.33899 1.29341 3.94049C1.09526 3.74358 0.937903 3.50951 0.830368 3.25168C0.722833 2.99385 0.667231 2.71734 0.666748 2.43799C0.666748 1.87382 0.891748 1.33382 1.29425 0.935488C1.69749 0.536454 2.24195 0.312739 2.80925 0.312988C3.37758 0.312988 3.92258 0.537155 4.32508 0.935488C4.72675 1.33382 4.95258 1.87382 4.95258 2.43799Z" fill="#D7D7D7"/>
</svg>
