<svg width="14" height="13" viewBox="0 0 14 13" fill="none" xmlns="http://www.w3.org/2000/svg">
<path d="M1.16663 7.33343L11.05 7.33343L8.02496 10.9668C7.88351 11.1369 7.81546 11.3563 7.83577 11.5767C7.85609 11.7971 7.96311 12.0003 8.13329 12.1418C8.30347 12.2832 8.52287 12.3513 8.74323 12.3309C8.96358 12.3106 9.16684 12.2036 9.30829 12.0334L13.475 7.03343C13.503 6.99366 13.5281 6.95188 13.55 6.90843C13.55 6.86676 13.55 6.84176 13.6083 6.8001C13.6461 6.70455 13.6658 6.60284 13.6666 6.5001C13.6658 6.39736 13.6461 6.29565 13.6083 6.2001C13.6083 6.15843 13.6083 6.13343 13.55 6.09176C13.5281 6.04831 13.503 6.00653 13.475 5.96676L9.30829 0.966763C9.22994 0.872694 9.13182 0.797044 9.02092 0.745193C8.91002 0.693342 8.78905 0.666564 8.66663 0.666762C8.47192 0.666383 8.28322 0.734195 8.13329 0.858429C8.04891 0.928387 7.97916 1.01431 7.92803 1.11126C7.87691 1.20822 7.84541 1.31431 7.83535 1.42345C7.82528 1.5326 7.83685 1.64266 7.86939 1.74733C7.90192 1.852 7.95479 1.94922 8.02496 2.03343L11.05 5.66676L1.16663 5.66676C0.945612 5.66676 0.733649 5.75456 0.577369 5.91084C0.421089 6.06712 0.333292 6.27908 0.333292 6.5001C0.333292 6.72111 0.421089 6.93307 0.577369 7.08935C0.733649 7.24563 0.945612 7.33343 1.16663 7.33343Z" fill="#242829" fill-opacity="0.5"/>
</svg>
