<svg width="18" height="14" viewBox="0 0 18 14" fill="none" xmlns="http://www.w3.org/2000/svg">
<path d="M17.125 1.61329C16.5273 1.8711 15.877 2.05665 15.207 2.12891C15.9026 1.7157 16.4234 1.0629 16.6719 0.292977C16.0192 0.681237 15.3042 0.953492 14.5586 1.09766C14.247 0.764513 13.8701 0.499109 13.4514 0.317991C13.0327 0.136873 12.5812 0.0439223 12.125 0.04493C10.2793 0.04493 8.79492 1.54102 8.79492 3.37696C8.79492 3.63477 8.82617 3.89259 8.87695 4.14063C6.11328 3.9961 3.64844 2.67579 2.00977 0.654305C1.71118 1.1643 1.55471 1.74498 1.55664 2.33595C1.55664 3.4922 2.14453 4.51173 3.04102 5.11134C2.5127 5.09053 1.99676 4.94532 1.53516 4.68751V4.72852C1.53516 6.34766 2.67969 7.68946 4.20508 7.99806C3.91867 8.07245 3.62404 8.11051 3.32812 8.11134C3.11133 8.11134 2.90625 8.08985 2.69922 8.06056C3.12109 9.38087 4.34961 10.3399 5.8125 10.3711C4.66797 11.2676 3.23438 11.7949 1.67773 11.7949C1.39844 11.7949 1.14062 11.7852 0.873047 11.7539C2.34961 12.7012 4.10156 13.2481 5.98828 13.2481C12.1133 13.2481 15.4648 8.17384 15.4648 3.76954C15.4648 3.62501 15.4648 3.48048 15.4551 3.33595C16.1035 2.86134 16.6719 2.27345 17.125 1.61329Z" fill="#D7D7D7"/>
</svg>
