<svg width="18" height="13" viewBox="0 0 18 13" fill="none" xmlns="http://www.w3.org/2000/svg">
<path d="M17.3848 2.42969C17.2851 2.05867 17.0898 1.72032 16.8184 1.44851C16.5469 1.17669 16.2088 0.980948 15.8379 0.880859C14.4727 0.513672 9 0.513672 9 0.513672C9 0.513672 3.52734 0.513672 2.16211 0.878906C1.79106 0.97867 1.45278 1.17431 1.18126 1.44617C0.90974 1.71804 0.71453 2.05656 0.615234 2.42773C0.25 3.79492 0.25 6.64648 0.25 6.64648C0.25 6.64648 0.25 9.49805 0.615234 10.8633C0.816406 11.6172 1.41016 12.2109 2.16211 12.4121C3.52734 12.7793 9 12.7793 9 12.7793C9 12.7793 14.4727 12.7793 15.8379 12.4121C16.5918 12.2109 17.1836 11.6172 17.3848 10.8633C17.75 9.49805 17.75 6.64648 17.75 6.64648C17.75 6.64648 17.75 3.79492 17.3848 2.42969ZM7.26172 9.26367V4.0293L11.793 6.62695L7.26172 9.26367Z" fill="#D7D7D7"/>
</svg>
